# Blender v3.0.1 OBJ File: 'TGDFlower1-5-unwrap.blend'
# www.blender.org
mtllib obj_lotus1-b.mtl
o Lotus1-b_Cylinder.021
v -0.017445 0.132004 0.010072
v 0.000000 0.120000 -0.010000
v 0.017445 0.132004 0.010072
v 0.008660 0.120000 0.005000
v 0.000000 0.132004 -0.020144
v -0.008660 0.120000 0.005000
v 0.000000 0.000000 -0.010000
v 0.008660 0.000000 0.005000
v -0.008660 0.000000 0.005000
v -0.015212 0.153439 0.008783
v 0.015212 0.153439 0.008783
v 0.000000 0.153439 -0.017566
v 0.000000 0.180019 0.000000
vt 0.268048 0.931437
vt 0.268048 0.953635
vt 0.276250 0.953635
vt 0.276250 0.931437
vt 0.259846 0.953635
vt 0.259846 0.931437
vt 0.743148 0.161934
vt 0.734945 0.161934
vt 0.726625 0.164154
vt 0.743148 0.164154
vt 0.757555 0.168120
vt 0.743148 0.168120
vt 0.743148 0.173036
vt 0.759670 0.164154
vt 0.751350 0.161934
vt 0.728740 0.168120
vn 0.0000 0.0000 -1.0000
vn 0.0000 -0.4273 -0.9041
vn 0.7830 -0.4273 0.4520
vn 0.8660 0.0000 0.5000
vn -0.7830 -0.4273 0.4520
vn -0.8660 0.0000 0.5000
vn -0.8407 -0.2400 0.4854
vn 0.0000 -0.2401 -0.9707
vn 0.8236 0.3091 0.4755
vn 0.0000 0.3091 -0.9510
vn 0.0000 1.0000 0.0000
vn 0.8407 -0.2400 0.4854
vn -0.8236 0.3091 0.4755
usemtl PlantFlowers
s 1
f 7/1/1 2/2/2 4/3/3 8/4/4
f 8/4/4 4/3/3 6/5/5 9/6/6
f 2/7/2 6/8/5 1/9/7 5/10/8
f 9/6/6 6/5/5 2/2/2 7/1/1
f 11/11/9 12/12/10 13/13/11
f 3/14/12 5/10/8 12/12/10 11/11/9
f 6/8/5 4/15/3 3/14/12 1/9/7
f 4/15/3 2/7/2 5/10/8 3/14/12
f 1/9/7 3/14/12 11/11/9 10/16/13
f 5/10/8 1/9/7 10/16/13 12/12/10
f 10/16/13 11/11/9 13/13/11
f 12/12/10 10/16/13 13/13/11
