# Blender v3.0.1 OBJ File: 'TGDFlower1-5-unwrap.blend'
# www.blender.org
mtllib obj_grass1.mtl
o grass1_Plane.009
v -0.014948 0.000076 -0.000000
v 0.015866 0.000078 -0.000000
v -0.040707 0.315052 0.000000
v -0.057482 0.309565 0.000000
v -0.028273 0.189085 0.000000
v -0.001748 0.194175 0.000000
v 0.000459 0.000019 -0.000000
v -0.060503 0.345245 0.000000
v -0.045946 0.265916 0.000000
v -0.025289 0.271625 0.000000
v -0.010582 0.089194 -0.000000
v 0.017625 0.091744 -0.000000
v -0.015011 0.191630 0.000000
v -0.035764 0.269301 0.000000
v 0.003736 0.088063 -0.000000
v -0.037463 0.000074 0.014101
v -0.006649 0.000077 0.014101
v -0.098983 0.273342 0.014101
v -0.109439 0.266301 0.014101
v -0.067439 0.159799 0.014101
v -0.049331 0.166452 0.014101
v -0.022056 0.000019 0.014101
v -0.124231 0.297399 0.014101
v -0.097423 0.234759 0.014101
v -0.084154 0.242392 0.014101
v -0.039876 0.086243 0.014101
v -0.019986 0.089931 0.014101
v -0.058385 0.163125 0.014101
v -0.091057 0.239042 0.014101
v -0.029506 0.085763 0.014101
v -0.092573 0.000076 -0.004450
v -0.076409 0.000075 -0.004450
v -0.072439 0.262579 -0.004450
v -0.081683 0.263094 -0.004450
v -0.088923 0.154941 -0.004450
v -0.074762 0.154477 -0.004450
v -0.084491 0.000019 -0.004450
v -0.075048 0.296780 -0.004450
v -0.085043 0.216464 -0.004450
v -0.073811 0.215950 -0.004450
v -0.090976 0.088502 -0.004450
v -0.076121 0.088225 -0.004450
v -0.081842 0.154709 -0.004450
v -0.079402 0.216743 -0.004450
v -0.083592 0.086007 -0.004450
v -0.093835 0.000058 0.007591
v -0.071927 0.000061 0.007591
v -0.143792 0.205668 0.007591
v -0.154582 0.199261 0.007591
v -0.121044 0.116132 0.007591
v -0.102727 0.121896 0.007591
v -0.082881 0.000019 0.007591
v -0.162184 0.222902 0.007591
v -0.140277 0.169859 0.007591
v -0.126569 0.176514 0.007591
v -0.105813 0.062464 0.007591
v -0.085930 0.065647 0.007591
v -0.111885 0.119014 0.007591
v -0.133590 0.173531 0.007591
v -0.095610 0.062397 0.007591
v 0.005970 0.000075 -0.010368
v 0.018149 0.000075 -0.010368
v 0.035391 0.312874 -0.010368
v 0.028471 0.313752 -0.010368
v 0.013759 0.186131 -0.010368
v 0.024403 0.185335 -0.010368
v 0.012059 0.000019 -0.010368
v 0.036384 0.346624 -0.010368
v 0.022340 0.267936 -0.010368
v 0.030761 0.267026 -0.010368
v 0.008085 0.087521 -0.010368
v 0.019271 0.087128 -0.010368
v 0.019081 0.185733 -0.010368
v 0.026608 0.268009 -0.010368
v 0.013597 0.084997 -0.010368
v 0.017365 -0.000115 0.004615
v 0.047219 -0.000107 0.004615
v 0.059853 0.285792 0.004615
v 0.049329 0.285464 0.004615
v 0.044379 0.183958 0.004615
v 0.066834 0.182326 0.004615
v 0.032288 -0.000111 0.004615
v 0.051149 0.316782 0.004615
v 0.046150 0.232669 0.004615
v 0.064027 0.232271 0.004615
v 0.037756 0.095551 0.004615
v 0.061001 0.091667 0.004615
v 0.055604 0.183180 0.004615
v 0.055062 0.233100 0.004615
v 0.049064 0.091097 0.004615
v 0.066846 0.000070 -0.014310
v 0.081747 0.000069 -0.014310
v 0.123847 0.258061 -0.014310
v 0.117914 0.260254 -0.014310
v 0.077757 0.151957 -0.014310
v 0.101494 0.147110 -0.014310
v 0.074296 0.000019 -0.014310
v 0.131910 0.287238 -0.014310
v 0.101209 0.221889 -0.014310
v 0.113992 0.217954 -0.014310
v 0.064542 0.079751 -0.014310
v 0.092708 0.076786 -0.014310
v 0.089626 0.149534 -0.014310
v 0.107741 0.220377 -0.014310
v 0.078409 0.076189 -0.014310
v 0.085032 0.000040 -0.000000
v 0.108728 0.000038 -0.000000
v 0.154829 0.181724 0.000000
v 0.147206 0.186132 0.000000
v 0.115017 0.110076 0.000000
v 0.131816 0.104853 0.000000
v 0.096880 0.000007 -0.000000
v 0.161277 0.200624 0.000000
v 0.137246 0.160982 0.000000
v 0.147426 0.156051 0.000000
v 0.100728 0.050640 -0.000000
v 0.120980 0.047816 -0.000000
v 0.123417 0.107464 0.000000
v 0.142471 0.158795 0.000000
v 0.110680 0.047965 -0.000000
vt 0.199873 0.953643
vt 0.212793 0.954127
vt 0.192576 0.968905
vt 0.182657 0.968261
vt 0.225713 0.954612
vt 0.202781 0.969348
vt 0.187761 0.977610
vt 0.168476 0.983355
vt 0.171420 0.976566
vt 0.212854 0.917681
vt 0.227863 0.917670
vt 0.231056 0.934422
vt 0.217108 0.934637
vt 0.242872 0.917682
vt 0.244585 0.935122
vt 0.161720 0.948071
vt 0.170540 0.948704
vt 0.138712 0.963148
vt 0.132511 0.962333
vt 0.179360 0.949337
vt 0.145437 0.963786
vt 0.130992 0.969674
vt 0.106396 0.974251
vt 0.120806 0.968335
vt 0.190921 0.917681
vt 0.205930 0.917670
vt 0.198672 0.933985
vt 0.188571 0.934076
vt 0.220939 0.917682
vt 0.207946 0.934777
vt 0.140791 0.947147
vt 0.147689 0.947103
vt 0.150066 0.958905
vt 0.144571 0.958852
vt 0.154587 0.947058
vt 0.155512 0.958755
vt 0.156849 0.967626
vt 0.154308 0.974134
vt 0.147844 0.967724
vt 0.137235 0.917681
vt 0.145108 0.917670
vt 0.145984 0.934031
vt 0.138791 0.934506
vt 0.152982 0.917681
vt 0.153262 0.934453
vt 0.109500 0.939763
vt 0.118422 0.940311
vt 0.097278 0.950684
vt 0.090765 0.949985
vt 0.127344 0.940859
vt 0.104118 0.951251
vt 0.087340 0.956798
vt 0.069424 0.960077
vt 0.076829 0.955579
vt 0.136006 0.917678
vt 0.146677 0.917670
vt 0.134277 0.929539
vt 0.124338 0.929551
vt 0.157347 0.917678
vt 0.143706 0.930157
vt 0.240819 0.953081
vt 0.246004 0.953005
vt 0.253336 0.968659
vt 0.249179 0.968646
vt 0.251189 0.952930
vt 0.257382 0.968473
vt 0.261893 0.977196
vt 0.262860 0.983617
vt 0.255152 0.977363
vt 0.233232 0.917681
vt 0.239164 0.917670
vt 0.240662 0.933839
vt 0.235292 0.934319
vt 0.245096 0.917681
vt 0.246189 0.934244
vt 0.270648 0.952668
vt 0.281583 0.952520
vt 0.281056 0.962018
vt 0.272374 0.961936
vt 0.292522 0.952357
vt 0.289789 0.961860
vt 0.285723 0.972043
vt 0.277243 0.977939
vt 0.275470 0.971981
vt 0.244332 0.917645
vt 0.258869 0.917646
vt 0.275212 0.934999
vt 0.264196 0.935847
vt 0.273415 0.917647
vt 0.286840 0.935108
vt 0.303163 0.946579
vt 0.314725 0.946118
vt 0.332372 0.959597
vt 0.326010 0.959885
vt 0.326288 0.945657
vt 0.338462 0.959136
vt 0.348062 0.966767
vt 0.355917 0.972318
vt 0.342283 0.967184
vt 0.292534 0.917680
vt 0.299792 0.917670
vt 0.303799 0.932163
vt 0.290290 0.932841
vt 0.307051 0.917680
vt 0.317728 0.932276
vt 0.339461 0.938610
vt 0.347643 0.938114
vt 0.366205 0.947880
vt 0.361115 0.948296
vt 0.355825 0.937617
vt 0.371032 0.947358
vt 0.378244 0.952242
vt 0.384526 0.955839
vt 0.370818 0.953081
vt 0.310251 0.917674
vt 0.321793 0.917668
vt 0.335236 0.926793
vt 0.325541 0.927302
vt 0.333335 0.917674
vt 0.345270 0.926765
vn 0.0000 -0.0000 1.0000
usemtl PlantFlowers
s off
f 5/1/1 13/2/1 14/3/1 9/4/1
f 13/2/1 6/5/1 10/6/1 14/3/1
f 14/3/1 10/6/1 3/7/1 8/8/1
f 9/4/1 14/3/1 8/8/1 4/9/1
f 1/10/1 7/11/1 15/12/1 11/13/1
f 7/11/1 2/14/1 12/15/1 15/12/1
f 15/12/1 12/15/1 6/5/1 13/2/1
f 11/13/1 15/12/1 13/2/1 5/1/1
f 20/16/1 28/17/1 29/18/1 24/19/1
f 28/17/1 21/20/1 25/21/1 29/18/1
f 29/18/1 25/21/1 18/22/1 23/23/1
f 24/19/1 29/18/1 23/23/1 19/24/1
f 16/25/1 22/26/1 30/27/1 26/28/1
f 22/26/1 17/29/1 27/30/1 30/27/1
f 30/27/1 27/30/1 21/20/1 28/17/1
f 26/28/1 30/27/1 28/17/1 20/16/1
f 35/31/1 43/32/1 44/33/1 39/34/1
f 43/32/1 36/35/1 40/36/1 44/33/1
f 44/33/1 40/36/1 33/37/1 38/38/1
f 39/34/1 44/33/1 38/38/1 34/39/1
f 31/40/1 37/41/1 45/42/1 41/43/1
f 37/41/1 32/44/1 42/45/1 45/42/1
f 45/42/1 42/45/1 36/35/1 43/32/1
f 41/43/1 45/42/1 43/32/1 35/31/1
f 50/46/1 58/47/1 59/48/1 54/49/1
f 58/47/1 51/50/1 55/51/1 59/48/1
f 59/48/1 55/51/1 48/52/1 53/53/1
f 54/49/1 59/48/1 53/53/1 49/54/1
f 46/55/1 52/56/1 60/57/1 56/58/1
f 52/56/1 47/59/1 57/60/1 60/57/1
f 60/57/1 57/60/1 51/50/1 58/47/1
f 56/58/1 60/57/1 58/47/1 50/46/1
f 65/61/1 73/62/1 74/63/1 69/64/1
f 73/62/1 66/65/1 70/66/1 74/63/1
f 74/63/1 70/66/1 63/67/1 68/68/1
f 69/64/1 74/63/1 68/68/1 64/69/1
f 61/70/1 67/71/1 75/72/1 71/73/1
f 67/71/1 62/74/1 72/75/1 75/72/1
f 75/72/1 72/75/1 66/65/1 73/62/1
f 71/73/1 75/72/1 73/62/1 65/61/1
f 80/76/1 88/77/1 89/78/1 84/79/1
f 88/77/1 81/80/1 85/81/1 89/78/1
f 89/78/1 85/81/1 78/82/1 83/83/1
f 84/79/1 89/78/1 83/83/1 79/84/1
f 76/85/1 82/86/1 90/87/1 86/88/1
f 82/86/1 77/89/1 87/90/1 90/87/1
f 90/87/1 87/90/1 81/80/1 88/77/1
f 86/88/1 90/87/1 88/77/1 80/76/1
f 95/91/1 103/92/1 104/93/1 99/94/1
f 103/92/1 96/95/1 100/96/1 104/93/1
f 104/93/1 100/96/1 93/97/1 98/98/1
f 99/94/1 104/93/1 98/98/1 94/99/1
f 91/100/1 97/101/1 105/102/1 101/103/1
f 97/101/1 92/104/1 102/105/1 105/102/1
f 105/102/1 102/105/1 96/95/1 103/92/1
f 101/103/1 105/102/1 103/92/1 95/91/1
f 110/106/1 118/107/1 119/108/1 114/109/1
f 118/107/1 111/110/1 115/111/1 119/108/1
f 119/108/1 115/111/1 108/112/1 113/113/1
f 114/109/1 119/108/1 113/113/1 109/114/1
f 106/115/1 112/116/1 120/117/1 116/118/1
f 112/116/1 107/119/1 117/120/1 120/117/1
f 120/117/1 117/120/1 111/110/1 118/107/1
f 116/118/1 120/117/1 118/107/1 110/106/1
