# Blender v3.0.1 OBJ File: 'TGDFlower1-5-unwrap.blend'
# www.blender.org
mtllib obj_lotus2-pi.mtl
o Lotus2-pi_Cylinder.041
v -0.008660 0.057084 0.005000
v 0.000000 0.166171 -0.010000
v 0.008660 0.057084 0.005000
v 0.008660 0.166171 0.005000
v 0.000000 0.057084 -0.010000
v -0.008660 0.166171 0.005000
v -0.014576 -0.000860 -0.010000
v -0.005916 -0.000860 0.005000
v -0.023236 -0.000860 0.005000
v 0.026510 0.225569 -0.026439
v -0.024946 0.225569 -0.026439
v 0.021841 0.175835 -0.005356
v -0.020283 0.175835 -0.005356
v 0.014741 0.236746 -0.023297
v 0.000784 0.244356 -0.024490
v -0.013177 0.236640 -0.023300
v 0.012208 0.168185 -0.001583
v 0.000784 0.161352 -0.000815
v -0.010650 0.168185 -0.001583
v -0.031926 0.184943 -0.012280
v -0.034319 0.199548 -0.021740
v -0.031926 0.213897 -0.026528
v 0.033490 0.184943 -0.012280
v 0.035883 0.199548 -0.021740
v 0.033490 0.213897 -0.026528
v -0.017653 0.176883 -0.024112
v 0.000784 0.174261 -0.026900
v 0.019220 0.176883 -0.024112
v -0.018842 0.192044 -0.040522
v 0.000784 0.190222 -0.044829
v 0.020410 0.192044 -0.040522
v -0.017653 0.211136 -0.039460
v 0.000784 0.213907 -0.040345
v 0.019220 0.211150 -0.039454
v -0.028604 0.225526 -0.028979
v -0.028604 0.225526 0.028561
v -0.005012 0.171857 -0.033860
v -0.005012 0.171857 0.032623
v -0.025088 0.236702 -0.015819
v -0.023531 0.244313 -0.000209
v -0.025092 0.236597 0.015401
v -0.000790 0.164207 -0.018656
v 0.000144 0.161309 -0.000209
v -0.000790 0.164207 0.017420
v -0.012760 0.180175 0.041642
v -0.023346 0.199505 0.042196
v -0.028704 0.213854 0.036367
v -0.012760 0.180175 -0.042879
v -0.023346 0.199505 -0.043623
v -0.028704 0.213854 -0.036785
v -0.023153 0.172929 0.018228
v -0.025941 0.171405 -0.000209
v -0.023153 0.172929 -0.018645
v -0.039563 0.192000 0.019417
v -0.043870 0.190179 -0.000209
v -0.039563 0.192000 -0.019835
v -0.038501 0.211093 0.018228
v -0.039387 0.213864 -0.000209
v -0.038495 0.211107 -0.018645
v -0.024976 0.225483 0.026055
v 0.026479 0.225483 0.026055
v -0.020307 0.175749 0.004972
v 0.021817 0.175749 0.004972
v -0.013207 0.236659 0.022913
v 0.000750 0.244269 0.024106
v 0.014711 0.236554 0.022916
v -0.010674 0.168098 0.001199
v 0.000750 0.161266 0.000431
v 0.012184 0.168098 0.001199
v 0.033460 0.184856 0.011896
v 0.035853 0.199461 0.021356
v 0.033460 0.213811 0.026145
v -0.031956 0.184856 0.011896
v -0.034349 0.199461 0.021356
v -0.031956 0.213811 0.026145
v 0.019187 0.176797 0.023728
v 0.000750 0.174174 0.026516
v -0.017687 0.176797 0.023728
v 0.020376 0.191957 0.040138
v 0.000750 0.190136 0.044445
v -0.018876 0.191957 0.040138
v 0.019187 0.211050 0.039076
v 0.000750 0.213821 0.039962
v -0.017686 0.211064 0.039070
v 0.030138 0.225440 0.028595
v 0.030138 0.225440 -0.028945
v 0.006546 0.171770 0.032662
v 0.006546 0.171770 -0.033821
v 0.026622 0.236616 0.015435
v 0.025065 0.244226 -0.000175
v 0.026625 0.236511 -0.015785
v 0.002324 0.164120 0.017459
v 0.001390 0.161223 -0.000175
v 0.002324 0.164120 -0.018617
v 0.014294 0.180088 -0.042840
v 0.024879 0.198471 -0.043557
v 0.030238 0.213768 -0.036751
v 0.014294 0.180088 0.041681
v 0.024879 0.199418 0.044773
v 0.030238 0.213768 0.036401
v 0.024687 0.172843 -0.018612
v 0.027475 0.171319 -0.000175
v 0.024687 0.172843 0.018262
v 0.041097 0.191914 -0.019801
v 0.045404 0.190093 -0.000175
v 0.041097 0.191914 0.019451
v 0.040035 0.211007 -0.018612
v 0.040920 0.213777 -0.000175
v 0.040029 0.211021 0.018261
v 0.000000 0.170024 0.000000
v 0.021708 0.186608 0.015772
v -0.008292 0.186608 0.025519
v -0.026833 0.186608 0.000000
v -0.008292 0.186608 -0.025519
v 0.021708 0.186608 -0.015772
v 0.008292 0.213440 0.025519
v -0.021708 0.213440 0.015772
v -0.021708 0.213440 -0.015772
v 0.008292 0.213440 -0.025519
v 0.026833 0.213440 0.000000
v 0.000000 0.248221 0.000000
vt 0.283438 0.941996
vt 0.283438 0.962175
vt 0.291640 0.962175
vt 0.291640 0.941996
vt 0.275235 0.962175
vt 0.275235 0.941996
vt 0.261431 0.931278
vt 0.269633 0.931278
vt 0.277835 0.931278
vt 0.751926 0.733651
vt 0.769388 0.733166
vt 0.769388 0.736119
vt 0.750800 0.736456
vt 0.786849 0.733651
vt 0.787976 0.736456
vt 0.769388 0.740500
vt 0.751927 0.739987
vt 0.786849 0.739990
vt 0.749436 0.733457
vt 0.758559 0.732042
vt 0.738409 0.735142
vt 0.769388 0.730778
vt 0.780208 0.732042
vt 0.789331 0.733457
vt 0.800364 0.735142
vt 0.802630 0.737844
vt 0.800364 0.740498
vt 0.793752 0.742657
vt 0.782607 0.744725
vt 0.769388 0.746132
vt 0.756166 0.744705
vt 0.738409 0.740498
vt 0.745020 0.742657
vt 0.736142 0.737844
vt 0.746718 0.732920
vt 0.744077 0.732638
vt 0.727096 0.736111
vt 0.731176 0.736448
vt 0.746718 0.732920
vt 0.731176 0.736448
vt 0.731343 0.740492
vt 0.732181 0.739979
vt 0.732187 0.739982
vt 0.763899 0.732721
vt 0.767897 0.731306
vt 0.756561 0.734260
vt 0.768782 0.730770
vt 0.767897 0.731306
vt 0.763899 0.732721
vt 0.756561 0.734260
vt 0.746535 0.737836
vt 0.741460 0.740490
vt 0.741555 0.742649
vt 0.744884 0.744717
vt 0.746359 0.746124
vt 0.744881 0.744697
vt 0.741460 0.740490
vt 0.741555 0.742649
vt 0.746535 0.737836
vt 0.786817 0.733635
vt 0.769356 0.733150
vt 0.769356 0.736103
vt 0.787944 0.736440
vt 0.751895 0.733635
vt 0.750768 0.736440
vt 0.769356 0.740484
vt 0.786817 0.739971
vt 0.751895 0.739974
vt 0.789308 0.733441
vt 0.780184 0.732026
vt 0.800335 0.735126
vt 0.769356 0.730762
vt 0.758536 0.732026
vt 0.749412 0.733441
vt 0.738380 0.735126
vt 0.736113 0.737828
vt 0.738380 0.740482
vt 0.744991 0.742641
vt 0.756137 0.744709
vt 0.769356 0.746116
vt 0.782578 0.744689
vt 0.800335 0.740482
vt 0.793724 0.742641
vt 0.802602 0.737828
vt 0.792026 0.732904
vt 0.794667 0.732622
vt 0.811647 0.736095
vt 0.807568 0.736432
vt 0.792026 0.732904
vt 0.807568 0.736432
vt 0.807401 0.740476
vt 0.806562 0.739963
vt 0.806556 0.739966
vt 0.774845 0.732705
vt 0.770846 0.731290
vt 0.782183 0.734244
vt 0.769962 0.730754
vt 0.770846 0.731290
vt 0.774845 0.732705
vt 0.782183 0.734244
vt 0.792209 0.737820
vt 0.797284 0.740474
vt 0.797189 0.742633
vt 0.793859 0.744701
vt 0.792385 0.746108
vt 0.793862 0.744681
vt 0.797284 0.740474
vt 0.797189 0.742633
vt 0.792209 0.737644
vt 0.768645 0.732382
vt 0.789205 0.735450
vt 0.760793 0.735450
vt 0.789205 0.735450
vt 0.743232 0.735450
vt 0.760793 0.735450
vt 0.794059 0.740414
vt 0.776498 0.740414
vt 0.748086 0.740414
vt 0.748086 0.740414
vt 0.776498 0.740414
vt 0.768645 0.746847
vn 0.0665 -0.0167 -0.9976
vn 0.0000 0.0000 -1.0000
vn 0.8660 0.0000 0.5000
vn 0.8743 -0.1042 0.4740
vn -0.8660 0.0000 0.5000
vn -0.8390 0.1082 0.5333
vn -0.8715 0.2192 0.4385
vn -0.1335 0.0336 -0.9904
vn 0.8056 -0.2026 0.5567
vn 0.4865 0.7577 0.4349
vn 0.0000 0.8467 0.5321
vn -0.0000 0.3482 0.9374
vn 0.4809 0.3162 0.8178
vn -0.4866 0.7577 0.4348
vn -0.4809 0.3161 0.8178
vn 0.0005 -0.3413 0.9399
vn 0.4069 -0.2586 0.8761
vn -0.4068 -0.2585 0.8762
vn 0.5741 0.8091 0.1257
vn 0.3867 0.8756 0.2895
vn 0.6930 0.6341 0.3428
vn 0.0000 0.9301 0.3674
vn -0.3867 0.8756 0.2894
vn -0.5741 0.8091 0.1254
vn -0.6931 0.6341 0.3426
vn -0.7609 0.2644 0.5925
vn -0.6295 -0.2098 0.7481
vn -0.4396 -0.4691 0.7659
vn -0.2712 -0.4930 0.8267
vn 0.0004 -0.5094 0.8605
vn 0.2722 -0.4935 0.8260
vn 0.6289 -0.2103 0.7485
vn 0.4381 -0.4699 0.7663
vn 0.7609 0.2644 0.5925
vn 0.5568 0.7651 -0.3234
vn 0.5728 0.8197 -0.0007
vn 0.9525 0.3046 0.0000
vn 0.8837 0.2851 -0.3712
vn 0.5605 0.7658 0.3151
vn 0.8869 0.2835 0.3648
vn 0.9478 -0.3186 -0.0004
vn 0.9293 -0.2359 -0.2841
vn 0.9297 -0.2388 0.2801
vn 0.3561 0.8513 -0.3853
vn 0.3596 0.9029 -0.2354
vn 0.5665 0.6559 -0.4988
vn 0.3611 0.9325 -0.0012
vn 0.3656 0.9009 0.2339
vn 0.3676 0.8495 0.3784
vn 0.5753 0.6576 0.4863
vn 0.7865 0.2823 0.5492
vn 0.8810 -0.1635 0.4438
vn 0.8734 -0.3970 0.2820
vn 0.8786 -0.4476 0.1665
vn 0.8836 -0.4681 -0.0005
vn 0.8781 -0.4482 -0.1675
vn 0.8786 -0.1586 -0.4503
vn 0.8734 -0.3977 -0.2810
vn 0.7787 0.2792 -0.5617
vn -0.4865 0.7577 -0.4349
vn 0.0000 0.8467 -0.5321
vn 0.0000 0.3482 -0.9374
vn -0.4809 0.3162 -0.8178
vn 0.4866 0.7577 -0.4348
vn 0.4809 0.3161 -0.8178
vn -0.0005 -0.3413 -0.9399
vn -0.4069 -0.2586 -0.8761
vn 0.4068 -0.2585 -0.8762
vn -0.5741 0.8091 -0.1257
vn -0.3867 0.8756 -0.2895
vn -0.6930 0.6341 -0.3428
vn 0.0000 0.9301 -0.3674
vn 0.3867 0.8756 -0.2894
vn 0.5741 0.8091 -0.1254
vn 0.6931 0.6341 -0.3426
vn 0.7609 0.2644 -0.5925
vn 0.6295 -0.2098 -0.7481
vn 0.4396 -0.4691 -0.7659
vn 0.2712 -0.4930 -0.8267
vn -0.0004 -0.5094 -0.8605
vn -0.2722 -0.4935 -0.8260
vn -0.6289 -0.2103 -0.7485
vn -0.4381 -0.4699 -0.7663
vn -0.7609 0.2644 -0.5925
vn -0.5593 0.7677 0.3127
vn -0.5728 0.8197 -0.0007
vn -0.9525 0.3046 0.0000
vn -0.8874 0.2838 0.3633
vn -0.5535 0.7704 -0.3163
vn -0.8881 0.2856 -0.3602
vn -0.9478 -0.3186 0.0004
vn -0.9297 -0.2388 0.2805
vn -0.9302 -0.2433 -0.2747
vn -0.3675 0.8495 0.3784
vn -0.3656 0.9009 0.2339
vn -0.5728 0.6639 0.4807
vn -0.3611 0.9325 -0.0012
vn -0.3597 0.9029 -0.2354
vn -0.3561 0.8513 -0.3852
vn -0.5654 0.6673 -0.4848
vn -0.7897 0.2895 -0.5409
vn -0.8846 -0.1716 -0.4336
vn -0.8734 -0.3970 -0.2820
vn -0.8786 -0.4476 -0.1665
vn -0.8836 -0.4681 0.0005
vn -0.8781 -0.4482 0.1675
vn -0.8811 -0.1648 0.4432
vn -0.8734 -0.3977 0.2810
vn -0.7850 0.2927 0.5459
vn 0.0000 -1.0000 0.0000
vn 0.7236 -0.4472 0.5257
vn -0.2764 -0.4472 0.8506
vn 0.7236 -0.4472 -0.5257
vn -0.8944 -0.4472 0.0000
vn -0.2764 -0.4472 -0.8506
vn 0.9472 0.3207 0.0000
vn 0.2927 0.3207 0.9008
vn -0.7663 0.3207 0.5567
vn -0.7663 0.3207 -0.5567
vn 0.2927 0.3207 -0.9008
vn 0.0000 1.0000 0.0000
usemtl PlantFlowers
s 1
f 5/1/1 2/2/2 4/3/3 3/4/4
f 3/4/4 4/3/3 6/5/5 1/6/6
f 1/6/6 6/5/5 2/2/2 5/1/1
f 9/7/7 1/6/6 5/1/1 7/8/8
f 8/9/9 3/4/4 1/6/6 9/7/7
f 7/8/8 5/1/1 3/4/4 8/9/9
f 26/10/10 27/11/11 30/12/12 29/13/13
f 27/11/11 28/14/14 31/15/15 30/12/12
f 29/13/13 30/12/12 33/16/16 32/17/17
f 30/12/12 31/15/15 34/18/18 33/16/16
f 13/19/19 19/20/20 26/10/10 20/21/21
f 19/20/20 18/22/22 27/11/11 26/10/10
f 18/22/22 17/23/23 28/14/14 27/11/11
f 17/23/23 12/24/24 23/25/25 28/14/14
f 28/14/14 23/25/25 24/26/26 31/15/15
f 31/15/15 24/26/26 25/27/27 34/18/18
f 34/18/18 25/27/27 10/28/28 14/29/29
f 33/16/16 34/18/18 14/29/29 15/30/30
f 32/17/17 33/16/16 15/30/30 16/31/31
f 22/32/32 32/17/17 16/31/31 11/33/33
f 21/34/34 29/13/13 32/17/17 22/32/32
f 20/21/21 26/10/10 29/13/13 21/34/34
f 51/35/35 52/36/36 55/37/37 54/38/38
f 52/36/36 53/39/39 56/40/40 55/37/37
f 54/38/38 55/37/37 58/41/41 57/42/42
f 55/37/37 56/40/40 59/43/43 58/41/41
f 38/44/44 44/45/45 51/35/35 45/46/46
f 44/45/45 43/47/47 52/36/36 51/35/35
f 43/47/47 42/48/48 53/39/39 52/36/36
f 42/48/48 37/49/49 48/50/50 53/39/39
f 53/39/39 48/50/50 49/51/51 56/40/40
f 56/40/40 49/51/51 50/52/52 59/43/43
f 59/43/43 50/52/52 35/53/53 39/54/54
f 58/41/41 59/43/43 39/54/54 40/55/55
f 57/42/42 58/41/41 40/55/55 41/56/56
f 47/57/57 57/42/42 41/56/56 36/58/58
f 46/59/59 54/38/38 57/42/42 47/57/57
f 45/46/46 51/35/35 54/38/38 46/59/59
f 76/60/60 77/61/61 80/62/62 79/63/63
f 77/61/61 78/64/64 81/65/65 80/62/62
f 79/63/63 80/62/62 83/66/66 82/67/67
f 80/62/62 81/65/65 84/68/68 83/66/66
f 63/69/69 69/70/70 76/60/60 70/71/71
f 69/70/70 68/72/72 77/61/61 76/60/60
f 68/72/72 67/73/73 78/64/64 77/61/61
f 67/73/73 62/74/74 73/75/75 78/64/64
f 78/64/64 73/75/75 74/76/76 81/65/65
f 81/65/65 74/76/76 75/77/77 84/68/68
f 84/68/68 75/77/77 60/78/78 64/79/79
f 83/66/66 84/68/68 64/79/79 65/80/80
f 82/67/67 83/66/66 65/80/80 66/81/81
f 72/82/82 82/67/67 66/81/81 61/83/83
f 71/84/84 79/63/63 82/67/67 72/82/82
f 70/71/71 76/60/60 79/63/63 71/84/84
f 101/85/85 102/86/86 105/87/87 104/88/88
f 102/86/86 103/89/89 106/90/90 105/87/87
f 104/88/88 105/87/87 108/91/91 107/92/92
f 105/87/87 106/90/90 109/93/93 108/91/91
f 88/94/94 94/95/95 101/85/85 95/96/96
f 94/95/95 93/97/97 102/86/86 101/85/85
f 93/97/97 92/98/98 103/89/89 102/86/86
f 92/98/98 87/99/99 98/100/100 103/89/89
f 103/89/89 98/100/100 99/101/101 106/90/90
f 106/90/90 99/101/101 100/102/102 109/93/93
f 109/93/93 100/102/102 85/103/103 89/104/104
f 108/91/91 109/93/93 89/104/104 90/105/105
f 107/92/92 108/91/91 90/105/105 91/106/106
f 97/107/107 107/92/92 91/106/106 86/108/108
f 96/109/109 104/88/88 107/92/92 97/107/107
f 95/96/96 101/85/85 104/88/88 96/109/109
f 110/110/110 111/111/111 112/112/112
f 111/111/111 110/110/110 115/113/113
f 110/110/110 112/112/112 113/114/114
f 110/110/110 113/114/114 114/115/115
f 110/110/110 114/115/115 115/113/113
f 111/111/111 115/113/113 120/116/116
f 112/112/112 111/111/111 116/117/117
f 113/114/114 112/112/112 117/118/118
f 114/115/115 113/114/114 118/119/119
f 115/113/113 114/115/115 119/120/120
f 111/111/111 120/116/116 116/117/117
f 112/112/112 116/117/117 117/118/118
f 113/114/114 117/118/118 118/119/119
f 114/115/115 118/119/119 119/120/120
f 115/113/113 119/120/120 120/116/116
f 116/117/117 120/116/116 121/121/121
f 117/118/118 116/117/117 121/121/121
f 118/119/119 117/118/118 121/121/121
f 119/120/120 118/119/119 121/121/121
f 120/116/116 119/120/120 121/121/121
