# Blender v3.0.1 OBJ File: 'TGDFlower1-5-unwrap.blend'
# www.blender.org
mtllib obj_waterlily.mtl
o waterLily_Plane.020
v -0.077315 0.005000 0.077315
v 0.077315 0.005000 0.077315
v -0.077315 0.005000 -0.077315
v 0.077315 0.005000 -0.077315
v -0.101016 0.005000 -0.041842
v -0.109339 0.005000 0.000000
v -0.101016 0.005000 0.041842
v -0.041842 0.005000 0.101016
v 0.041842 0.005000 0.101016
v 0.101016 0.005000 0.041842
v 0.109339 0.005000 0.000000
v 0.101016 0.005000 -0.041842
v 0.041842 0.005000 -0.101016
v -0.000000 0.005000 -0.109339
v -0.041842 0.005000 -0.101016
v -0.000000 0.005000 -0.000000
v -0.077315 -0.005000 0.077315
v 0.077315 -0.005000 0.077315
v -0.077315 -0.005000 -0.077315
v 0.077315 -0.005000 -0.077315
v -0.101016 -0.005000 -0.041842
v -0.109339 -0.005000 0.000000
v -0.101016 -0.005000 0.041842
v -0.041842 -0.005000 0.101016
v 0.041842 -0.005000 0.101016
v 0.101016 -0.005000 0.041842
v 0.109339 -0.005000 0.000000
v 0.101016 -0.005000 -0.041842
v 0.041842 -0.005000 -0.101016
v -0.000000 -0.005000 -0.109339
v -0.041842 -0.005000 -0.101016
v -0.000000 -0.005000 -0.000000
v -0.077315 0.005000 -0.077315
v -0.101016 0.005000 -0.041842
v -0.109339 0.005000 0.000000
v -0.101016 0.005000 0.041842
v -0.077315 0.005000 0.077315
v -0.041842 0.005000 0.101016
v -0.041842 0.005000 0.101016
v 0.041842 0.005000 0.101016
v 0.041842 0.005000 0.101016
v 0.077315 0.005000 0.077315
v 0.101016 0.005000 0.041842
v 0.109339 0.005000 0.000000
v 0.101016 0.005000 -0.041842
v 0.077315 0.005000 -0.077315
v 0.041842 0.005000 -0.101016
v -0.000000 0.005000 -0.109339
v -0.041842 0.005000 -0.101016
v -0.000000 0.005000 -0.000000
v -0.000000 0.005000 -0.000000
v -0.077315 -0.005000 -0.077315
v -0.101016 -0.005000 -0.041842
v -0.109339 -0.005000 0.000000
v -0.101016 -0.005000 0.041842
v -0.077315 -0.005000 0.077315
v -0.041842 -0.005000 0.101016
v -0.041842 -0.005000 0.101016
v 0.041842 -0.005000 0.101016
v 0.041842 -0.005000 0.101016
v 0.077315 -0.005000 0.077315
v 0.101016 -0.005000 0.041842
v 0.109339 -0.005000 0.000000
v 0.101016 -0.005000 -0.041842
v 0.077315 -0.005000 -0.077315
v 0.041842 -0.005000 -0.101016
v -0.000000 -0.005000 -0.109339
v -0.041842 -0.005000 -0.101016
v -0.000000 -0.005000 -0.000000
v -0.000000 -0.005000 -0.000000
vt 0.307969 0.939198
vt 0.338359 0.943164
vt 0.272122 0.956101
vt 0.205886 0.943164
vt 0.236275 0.939198
vt 0.307969 0.973003
vt 0.338359 0.969037
vt 0.185580 0.963102
vt 0.205886 0.969037
vt 0.358664 0.949099
vt 0.365795 0.956101
vt 0.358664 0.963102
vt 0.272122 0.974396
vt 0.236275 0.973003
vt 0.178450 0.956101
vt 0.185580 0.949099
vt 0.307969 0.939198
vt 0.272122 0.956101
vt 0.338359 0.943164
vt 0.205886 0.943164
vt 0.236275 0.939198
vt 0.307969 0.973003
vt 0.338359 0.969037
vt 0.185580 0.963102
vt 0.205886 0.969037
vt 0.358664 0.949099
vt 0.365795 0.956101
vt 0.358664 0.963102
vt 0.272122 0.974396
vt 0.236275 0.973003
vt 0.178450 0.956101
vt 0.185580 0.949099
vt 0.185580 0.963102
vt 0.205886 0.969037
vt 0.205886 0.969037
vt 0.185580 0.963102
vt 0.178450 0.956101
vt 0.178450 0.956101
vt 0.185580 0.949099
vt 0.185580 0.949099
vt 0.205886 0.943164
vt 0.205886 0.943164
vt 0.236275 0.939198
vt 0.236275 0.939198
vt 0.338359 0.943164
vt 0.307969 0.939198
vt 0.307969 0.939198
vt 0.338359 0.943164
vt 0.358664 0.949099
vt 0.358664 0.949099
vt 0.365795 0.956101
vt 0.365795 0.956101
vt 0.358664 0.963102
vt 0.358664 0.963102
vt 0.338359 0.969037
vt 0.338359 0.969037
vt 0.307969 0.973003
vt 0.307969 0.973003
vt 0.272122 0.974396
vt 0.272122 0.974396
vt 0.236275 0.973003
vt 0.236275 0.973003
vt 0.272122 0.956101
vt 0.236275 0.939198
vt 0.236275 0.939198
vt 0.272122 0.956101
vt 0.307969 0.939198
vt 0.272122 0.956101
vt 0.272122 0.956101
vt 0.307969 0.939198
vn 0.0000 1.0000 0.0000
vn 0.0000 -1.0000 0.0000
vn -0.9239 0.0000 -0.3827
vn -0.7071 0.0000 -0.7071
vn -1.0000 0.0000 0.0000
vn -0.9239 0.0000 0.3827
vn -0.7071 0.0000 0.7071
vn -0.5556 0.0000 0.8314
vn 0.7071 0.0000 0.7071
vn 0.5556 0.0000 0.8314
vn 0.9239 0.0000 0.3827
vn 1.0000 0.0000 0.0000
vn 0.9239 0.0000 -0.3827
vn 0.7071 0.0000 -0.7071
vn 0.3827 0.0000 -0.9239
vn 0.0000 0.0000 -1.0000
vn -0.3827 0.0000 -0.9239
usemtl PlantFlowers
s 1
f 40/1/1 42/2/1 50/3/1
f 37/4/1 38/5/1 50/3/1
f 47/6/1 50/3/1 46/7/1
f 34/8/1 50/3/1 33/9/1
f 42/2/1 43/10/1 50/3/1
f 50/3/1 43/10/1 44/11/1
f 50/3/1 44/11/1 45/12/1
f 50/3/1 45/12/1 46/7/1
f 50/3/1 47/6/1 48/13/1
f 50/3/1 48/13/1 49/14/1
f 50/3/1 49/14/1 33/9/1
f 35/15/1 50/3/1 34/8/1
f 36/16/1 50/3/1 35/15/1
f 36/16/1 37/4/1 50/3/1
f 59/17/2 69/18/2 61/19/2
f 56/20/2 69/18/2 57/21/2
f 66/22/2 65/23/2 69/18/2
f 53/24/2 52/25/2 69/18/2
f 61/19/2 69/18/2 62/26/2
f 69/18/2 63/27/2 62/26/2
f 69/18/2 64/28/2 63/27/2
f 69/18/2 65/23/2 64/28/2
f 69/18/2 67/29/2 66/22/2
f 69/18/2 68/30/2 67/29/2
f 69/18/2 52/25/2 68/30/2
f 54/31/2 53/24/2 69/18/2
f 55/32/2 54/31/2 69/18/2
f 55/32/2 69/18/2 56/20/2
f 5/33/3 3/34/4 19/35/4 21/36/3
f 6/37/5 5/33/3 21/36/3 22/38/5
f 7/39/6 6/37/5 22/38/5 23/40/6
f 1/41/7 7/39/6 23/40/6 17/42/7
f 39/43/8 1/41/7 17/42/7 58/44/8
f 2/45/9 41/46/10 60/47/10 18/48/9
f 10/49/11 2/45/9 18/48/9 26/50/11
f 11/51/12 10/49/11 26/50/11 27/52/12
f 12/53/13 11/51/12 27/52/12 28/54/13
f 4/55/14 12/53/13 28/54/13 20/56/14
f 13/57/15 4/55/14 20/56/14 29/58/15
f 14/59/16 13/57/15 29/58/15 30/60/16
f 15/61/17 14/59/16 30/60/16 31/62/17
f 3/34/4 15/61/17 31/62/17 19/35/4
f 51/63/11 8/64/11 24/65/11 70/66/11
f 9/67/6 16/68/6 32/69/6 25/70/6
